/* XPM */
static char *_4d62c48f6b84d97bb2e259af0a60139dB1XHrAGdviJ2hKi[] = {
/* columns rows colors chars-per-pixel */
"64 64 213 2 ",
"   c #3C4D3E",
".  c #404E3F",
"X  c #5E523C",
"o  c #535A3E",
"O  c #5B593D",
"+  c #63593E",
"@  c #374F41",
"#  c #365242",
"$  c #3B5344",
"%  c #3B5A44",
"&  c #345649",
"*  c #3E544A",
"=  c #345C4C",
"-  c #3C5C4C",
";  c #355552",
":  c #335C54",
">  c #3C5D53",
",  c #375E59",
"<  c #3E5F58",
"1  c #36614F",
"2  c #3D624E",
"3  c #346254",
"4  c #3D6353",
"5  c #3D6956",
"6  c #376258",
"7  c #3D645A",
"8  c #36695A",
"9  c #3D695D",
"0  c #3F6763",
"q  c #3E6B63",
"w  c #3F6C69",
"e  c #425343",
"r  c #4E5545",
"t  c #435845",
"y  c #4D5846",
"u  c #42554B",
"i  c #4A574A",
"p  c #445B4C",
"a  c #4B5C4D",
"s  c #535345",
"d  c #5B5543",
"f  c #515945",
"g  c #5C5C43",
"h  c #55554A",
"j  c #5B554B",
"k  c #535C4D",
"l  c #5B5C4C",
"z  c #445E53",
"x  c #4C5E53",
"c  c #445F59",
"v  c #4C5F59",
"b  c #545E52",
"n  c #5B5E52",
"m  c #565C58",
"M  c #585D59",
"N  c #645745",
"B  c #625C45",
"V  c #685D47",
"C  c #63544C",
"Z  c #635D4B",
"A  c #6B5F4F",
"S  c #6B544C",
"D  c #705F4D",
"F  c #635E53",
"G  c #695B53",
"H  c #705F57",
"J  c #466047",
"K  c #43614D",
"L  c #4C614D",
"P  c #5C6245",
"I  c #53614E",
"U  c #5C614C",
"Y  c #446354",
"T  c #4C6355",
"R  c #446956",
"E  c #4C6956",
"W  c #44645B",
"Q  c #4C655B",
"!  c #446B5C",
"~  c #4C6A5C",
"^  c #546354",
"/  c #5B6354",
"(  c #546956",
")  c #5B6956",
"_  c #53655B",
"`  c #5B6559",
"'  c #536A5C",
"]  c #5C6B5C",
"[  c #43715E",
"{  c #4A715F",
"}  c #49705D",
"|  c #4C705D",
" . c #52715E",
".. c #5B715C",
"X. c #626245",
"o. c #6D6147",
"O. c #63624D",
"+. c #6A644B",
"@. c #71664A",
"#. c #636353",
"$. c #6A6452",
"%. c #636A56",
"&. c #6D6A55",
"*. c #636559",
"=. c #6A645A",
"-. c #636B5B",
";. c #6B6D5B",
":. c #716453",
">. c #706957",
",. c #736059",
"<. c #716D5A",
"1. c #7D6D5C",
"2. c #63705D",
"3. c #72725D",
"4. c #456661",
"5. c #4A6661",
"6. c #446B63",
"7. c #486960",
"8. c #4A6961",
"9. c #4F6960",
"0. c #4C6A62",
"q. c #4D6863",
"w. c #496D61",
"e. c #4B6A64",
"r. c #4C6B65",
"t. c #4E6B66",
"y. c #4F6D65",
"u. c #4F6C67",
"i. c #4F6E66",
"p. c #4D6C64",
"a. c #4B6C63",
"s. c #416A68",
"d. c #4C6E68",
"f. c #526760",
"g. c #516562",
"h. c #596760",
"j. c #516860",
"k. c #536861",
"l. c #506A61",
"z. c #506963",
"x. c #536863",
"c. c #506B62",
"v. c #536A62",
"b. c #546B61",
"n. c #516D61",
"m. c #546E63",
"M. c #566D63",
"N. c #526865",
"B. c #506B64",
"V. c #536A64",
"C. c #556A65",
"Z. c #546A67",
"A. c #566B66",
"S. c #536C66",
"D. c #506F67",
"F. c #536D64",
"G. c #576D65",
"H. c #556D67",
"J. c #556F64",
"K. c #536C63",
"L. c #5A6B65",
"P. c #5A6E65",
"I. c #586D66",
"U. c #5E6F65",
"Y. c #5B6D64",
"T. c #506D68",
"R. c #526E69",
"E. c #536E69",
"W. c #5B6D69",
"Q. c #447163",
"!. c #4A7361",
"~. c #497261",
"^. c #4E7060",
"/. c #4C7062",
"(. c #4E7362",
"). c #4E7262",
"_. c #4B7462",
"`. c #4C7064",
"'. c #4F7365",
"]. c #4E7465",
"[. c #4C7264",
"{. c #44726B",
"}. c #4E716A",
"|. c #4D7069",
" X c #4D7369",
".X c #4E786B",
"XX c #567067",
"oX c #557067",
"OX c #547665",
"+X c #557465",
"@X c #547364",
"#X c #5F7664",
"$X c #5C7464",
"%X c #517866",
"&X c #5C7963",
"*X c #5D7867",
"=X c #52726A",
"-X c #5C726A",
";X c #50786F",
":X c #587A69",
">X c #4B7571",
",X c #527870",
"<X c #626760",
"1X c #646E65",
"2X c #636E63",
"3X c #6C6D61",
"4X c #657165",
"5X c #637264",
"6X c #6A7263",
"7X c #63716A",
"8X c #6A7469",
"9X c #62786C",
"0X c #6E7B6C",
/* pixels */
"- - - > 2 4 2 2 p Y p T L ( I L Y 5 5 R ! ! [ [ _.!.!.!.{ { ~ ~ ! !.].+X~ &XE ( J J K K 4 4 3 3 4 4 4 4 4 4 4 4 7 7 4 4 4 4 1 1 ",
"- - > > 4 4 4 4 Y Y K T L ( ^ T R ! ! ! ~ { ^.^.'.^.^.^.~ ~ ~ ~ w.'.=X+X' #X^ ( L L T R R ! 9 9 W W W W W W W W W W W Y 4 4 4 4 ",
"> > > 4 4 4 4 Y Y R z T a ' ^ ^ ' ~ ~ ~ l.n.F.M.+XF.F.b.' _ _ Q l.F.P.P._ 4X^ ) b ^ ( _ ' l.i.i.l.l.l.l.l.l.g.l._ ~ Q Q ~ E E T ",
"< < Y 7 Y W W Y Y E z T x ' _ _ Q ~ ~ ~ l.l.l.l.l.l.l.l._ _ Q Q N.C.C.L._ 1X/ ` / / ` ] F.F.T.T.F.C.C.C.C.C.C.C.B.B.B.l.l._ Q Q ",
"W W W W W W W W W E z Q x ' _ _ W ! ! 8.8.8.~ ~ ~ ~ ~ ~ ~ ~ ~ 7.e.r.B.b.T Y.^ ` _ _ ' M.+X=X|.|.T.T.T.F.F.i.T.T.i.i.i.i.r.0.5.7.",
"W W W W W W W Y Y Q z Q x ' ^ T W ! ! ! ! ! ! ! Y W W W W W W w.w.8.8.0.T +X_ ' ' ' M.+X=X=X|.w.w.w.w.'.'.'.'.'.i.i.i.i.0.8.~ W ",
"z z z Q Q Q Q T T _ x _ x ` b x Y 9 ! ! ! ! R ! R R W R ! ! ! ! ! ! R R Y $XQ ' ' ' ' n.n.~ ! ! ! ! ! ! ~ ~ w.w.8.8.8.8.~ ~ W W ",
"u p p x x T T T T ^ x ^ a ) k a Y Y R R E E T T T T T T E E E E E E T T a Y.( ] ( _ ' ' ' T T z Y Y R E E E E E Q Q E E Q Q T T ",
"] ] ] Y.5X5X5X5X5X5X] ) / / ) *.5X$X] ] 2.2.-.-.2.6X6X-.] -.Y.] ] ] ` ` -.-.*.*.3X3X3X6X6X6X1X2X6X-.0X-.6X6X2X2X4X4X1X2X1X1X1X8X",
"k a a a k L L L k k k k k l / / b b b k / U l l #.#.#.n l / / b / n l n / #.#.#.F F F F / / n n / l *.k / n n l n n n n n n n n ",
"^ ^ k ^ ^ ( ( ( ( ) ) ) ) ) ) ) ` ( ) ) ) ) %.O.%.%.%./ / ) ] ` ) ) ) ) *.*.*.*.#.#.#.#.) ) / / / l -.k #.) ) / ) ) ) ) ` ` ` ` ",
"a a a a T ( ( ( ( ( ] ) ) ) ( ^ ' E ' ( ( ( I I / / I L L T _ ^ ( ( ( ( ( ( ^ ^ ) ( ^ ^ ^ ^ ^ L ( k ] k ) ] ) ) ) ) ] ' ' ' _ _ ",
"p p p p Y T E E E E ' ' ' ' ] M.~ ! ! E E E L J L T T K Y R ~ ! { } } } ~ ~ E R E E E E E R R Y T J ( L ' '  .' ' | @X^.^.y.~ ! ",
"E E E R R ~ R R ^.y.y.n.+X+X-X:X.X.X X%XOX . .E ' ' ~ R ~ ^. X]._._._.].%X%XOXOXOX=X^.y.^.^.!.~ ' T  .T @X+X+X@X^.'.%X X X`.6.6.",
"! ! ! ! ! ! ! 7 6.6.6.w.6.8.8.8.|.|.|.=X+X@X' ' ' ' ' Q ~ i.=X|.`.w.w.w.i.i.i.i.F.i.0.0.r.i.y.~ ' T ' a _ b.l.Q ~ 7.e.w.6.4.7 7 ",
"W W ! ! w.6.! 9 6.6.6.w.w.w.w.e.w.e.0.y.M.M.' _ ' ] b.b.n.XX=X=X;X;X=XT.=X=XE.F.XX=XF.T.T.=XXXP.Y._ Y.x ] ' ' Q _ 0.F.i.i.8.W Y ",
"E R R R R ! R R ! ! ! ! R R W W W ! R R Q T T x _ ' ' ' ' +X+XF.%X'.y.l.n.b.n.n.n.y.i.i.i.T.T.+X] ^ 5Xt ' T ' T T E E ~ ~ W W 4 ",
"E R R R R R ! ! R Y R R W E W R Y Y R Y z z p i _ ] ' _ Q ~ ~ R y.w.0.' l._ _ Q n.y.w.w.i.i.T.F.] ( 5Xa ) ^ ' T E ~ ~ y.y.w.~ ! ",
"Y Y Y Y Y Y Y 7 Y 4 < Y W W c c > > - - - u u u x T T T T Q ~ W ! ! ~ 5.g._ Q Q 0.~ w.w.e.e.r.r.b.^ 5Xp ' Q _ T Q ~ ~ 7.7.4.4.W ",
"l.' ' ' ' ' ~ ~ M.b.b.Y.Y.Y.L._ ' E ' ' _ _ ` ` ] -.2X2X5X5X5X#X#X#X#X5X4X8X8X4X5X#X#X-X-X-X-X7X4X-.0X` 5X1X1XY.L.P.P.P.P.P.E.E.",
"k f f f f y f f k k k l l l j d o o o o O g g B B B B g g g g g g P g g B +.o.+.g g P P U U l g Z g O.d Z l l l l l l l l l l l ",
"/ / / / / / / / U U O.O.Z Z Z Z X.P P X.X.X.B B X.B B X.X.B g X.g P g O + o.@.o.B X.X.P O.O.O.O.+.X.$.X.O.$.O.$.#.#.#.#.#.#.F F ",
"T T T Q _ _ ^ ^ x b ^ b k h h k ^ ^ ^ ( ^ I k k k k k k I I I ^ a I k r d U O.l f k I I ^ ^ ^ ^ ) ^ ) ^ ^ ` ^ ` ^ ^ ^ b b b b x ",
"W W 8.8.8.8.8.8.~ 0.b._ v x b _ ' ~ ' ' M.M.' ' b._ ' ' ' Q E E ~  .' ^ ( ] -.( ^ T ' ' n.n.F.n.n.~ n.n.~ F.~ F.n.F.B.B.l.l.5.5.",
"9 q 6.6.6.6.6.6.w.w.8.W z z Q Q 8.6.w.w.i.i.i.r.i.i.|.i.w.w.|.|.`.].i.n.' -XT +X' y.i.|.|..X;X;X|.|. X X X X|.|.=X|.|.i.i.i.e.w.",
"8 9 9 q q 6.6.! w.'.i.~ E E T ~ 8.6.w.w.w.w.i.i.i.|.|.|.w.|..X.X X.X%X:X+X9X_ +X@X=X%X.X;X,X,X,X X X X X.X X X X%X X X|.|.'.`.w.",
"4 Y R R R ! R R Y T T T L a a a T E E E E E E E ' ' ~ ~ ~ y.@XOX(.OX+X#XY.5X^ ] ( ' ~ @X@X=X=X=X| | | ~ | | | | ~ ~ E ~ ~ E E R ",
"Y Y Y Y R R R R T T T ^ I I I ^ Q Q ' ' ' n.n.n.+X+X+X+X+X+X+X:XOX:X+X#XY.8X) 5X] ] @X@X+X:X:X:X+X@X@X@X@XOX@X@X@X . . .' ~ ~ R ",
"W Y Y W W W W W W E T x x x ^ _ Q ~ 5.5.0.B.F.F.=X=X=XXX=X=Xi.w.`.|.y.n._ 1Xb L.b.M.F.=X=X=X=X=XXXXX=X=X=X=X=X=X=XF.i.i.y.8.~ W ",
"q.Q Q Q Q _ _ _ T T b a b b n / ` h.h.h.L.L.Y.P.P.P.P.P.P.M.b._ ~ n._ _ n <Xb <X` ] Y.Y.F.F.E.E.P.F.P.P.F.F.b.l.F.b.l.' l.Q Q Q ",
"F F n n n n #.#.#.#.Z Z A $.:.:.>.&.>.&.>.;.<.3.3.3.;.;.;.;.;.%.-.2.&.&.>.1.D 1.>.&.;.;.;.;.;.;.;.;.3X3X3X;.;.*.;.;.*.*.;.*.*.#.",
"d s s s s s d d d d d d N N N N d d d d d d g g +.V g g g g l l f P g V N :.X V B B g l U U l l Z Z #.#.#.Z l l l l l l U U U l ",
"` ` ` ] ] ] 2X2X2X-.-.` / / / / ) ) ( ( ) ) ) ) =.=./ ) ` ) ( ( ..] ] ] ] ] ] ] ] ) ) ] ] ..2.2.) / 6XU ) / / / / / ^ ^ ^ ^ ^ ^ ",
"E E E E E E E E E E Q Q Q Q Q T Q E R E _ ( T ^ *.n x T T z 4 4 % - - p z z Y Y ~ W Y Y R R E E L p ' p a p p p % $ $ $ $ $ @ @ ",
"7 7 7 7 7 7 7 7 7 7 7 7 7 ! ! ! W ! ! ! ~ E R E ` b T Y Y > = 3 6 7 7 7 4.s.s.s.s.0 s.s.s.6.6.W Y c B.> c > > > < > > ; ; ; ; ; ",
"7 7 7 7 9 ! ! ! 9 9 ! 6.6.6.6.`.6.6.Q.Q.y.~ ~ ~ ] ` E ! E 4 3 8 9 9 q q q q q s.q w {.{.>X{.6.6.w.W =X7 W 7 7 7 6 6 6 , : : : : ",
"> < < c W W 4.w.4.w.7.8.8.e.e.w.8.6.6.6.~ E R Y _ _ E ! E Y 7 9 5 5 9 9 9 9 9 ! 9 ! ! [ [ [ 5 5 Y Y ~ - 4 - - 2 2 1 1 3 1 = = = ",
"c c c W W W W W ~ ~ 8.8.8.8.8.8.~ 7.w.! E T 4 - ` _ Q ~ Q W 7 ! ! ! ! [ !._._.]._.!.! 5 5 ! ! ! Y Y  .p Y K 4 Y Y Y R R R 5 7 4 ",
"Y Y Y Y W W W W W W ! ! ! ! ! W Q Q W E x x p p *.` _ _ _ T W 8.! w.w.w.w.i.i.i.=Xi.e.8.8.i.i.F.l._ -XT ' _ ~ ~ ~ ~ ~ ~ W W Y 7 ",
"- p - Y Y Y R R Y Y Y Y Y Y Y Y z z Y Y a i t e *.#.` _ _ x E ! w.w.w.w.r.e.r.r.c W 7.r.T.=Xi.0.l._ 7XQ b._ l.0.B.B.T.r.r.8.4.W ",
"p p p p p p p p p p p p p p p p p p - % t t % % k I T L a T R 5 5 6 9 ! Y W ~ W W R ~ y.y.w.! ~ E Q Q T z Y E ~ ~ ~ ~ ~ ! ! ! W ",
") ) ` ` ` ` ) ) ` ` ` ] ] ] ` ` ) ' ' ( ) ) ( ( %.;.-.) ] ] ' ' E R E ' E ' ..] $X$X#X5X#X*X#X#X] 2.5X] ] ] ] $X#X#X$X#X#X#X$X$X",
"s s s s h h h h h h h h h h h s j j h h j j l l C S C j C C l k U k U U g Z &.$.B B Z Z Z l l l B Z Z Z g d B Z Z g l l l l l l ",
"k k b n n n / / n n n n F #.F F F F / / F F / #.H ,.=.=.=.=.*./ ) / ) #.l $.<.>.Z Z Z Z Z F #.#.O.O.$.$.O.O.#.#.Z Z Z Z F F Z l ",
"% % % p p p p p p a a a a x b a x Y Y Y T Y 2 K b b T Y T T > = = & & & # p T T u u u * * * > p p p p z z p p p p p u u u u * * ",
"4 4 4 4 4 Y Y Y Y T E T Q ' ' ' 0.w.! [ ~ ! [ [ ~ ' ~ ! ~ ~ 9 3 3 3 6 : > R +X@XY Y Y Y Y W W W Y W W W W W W W 8.~ W W W W c z ",
"7 7 4 4 < < c c z Q T v Q L.Y.b.B.i.w.`.y.i.Q.!.M.P.F.i.F.i.6.6 : = > - * T ' ( ^ ^ ^ _ _ Q ~ ~ E E E E E E ' Q ' _ _ _ _ _ _ x ",
"! W W Y c c Y c z Q Q v g.W.7XW.C.i.|.|.=X=X X%XW.W.=X=XE.T.w.6 7 7 Y - % T ' ^ ^ ^ ^ _ _ ' ~ E E T Q E E ' ' ' Q T T T T T T x ",
"Y W W 8.8.W W c c c c z Q W.-XC.E.|. X X=X|. X XZ.Z.T.|.E.F.6.9 9 9 7 - - Y E ' Q Q ' ~ 0.y.r.i.W E ~ 8.8.~ ~ E E W W E ~ ~ E Y ",
"< 4 Y W W W W W W Q W z Q W.-Xl.~ ! ! Q.w.6.Q.6.l.g.8.w.0.~ ! 9 : 3 = & & - E ' T T T E ~ ~ ~ 7.y.0.y.0.0.~ ~ ~ E W Y W W W Y > ",
"4 4 Y R ! R R R Y Y Y z T ' ' E ~ ! [ [ { { Q.Q.M.M.~ ~ ~ ~ ! ! = - - % p T ' ] ^ ( ^ _ _ ' ' ' ' _ T T T T T T T x z T T Q T p ",
"# # $ % % p p p p p p p a T ^ a p K 2 2 K K 4 Y x x p p p p - - # $ $   e y k I k k k k b x T T ^ ^ b b b b ^ ^ e .   e i a i e ",
"k k b b / / / / -.-.-.*.-.3X3X-.*.` ) ` #.) ( ) =.G / / n n ^ ^ ^ ^ k k I ) *.%.*.*.*.*.-.-.-.-.-.-.-.-.) / / / n k k b ) *.) / ",
"r r r f f h h h s h h h j l l j l l k k l l k l G G l l j l k k k k k k l U / l l l l l l I ^ b / #.#.#./ n l k k f f y h k h y ",
"t p i i a a k a ^ ^ b ^ ^ / / / ^ ^ ^ ^ / / ^ ( =.=./ ) / / ^ ^ ^ ( ^ / / -.-./ / / / / ^ ^ ^ ^ l l l l l k k k / / n b b k b k ",
"# $ $ * % p p p p p p p p p p p p p p K a a J p l l a a x a z p p a i a k ^ ^ k ^ ^ ^ ^ ^ ^ T ^ b k n n / ` ] -.) ` ] ) ` _ ` ] ",
"& & - - > > 4 4 Y Y Y Y Y Y Y c c Y 4 4 z z 2 p b b x z x Q W Y z z z z z T T z T T T Q ' ~ ~ ' ^ ^ _ x x Y.L.Y.Y.b.b.b.b.l._ Q ",
"> > 4 7 Y W W W W W W W Y Y Y Y W Y 7 7 Y Y Y Y b _ Q Q T ~ W 7 Y Y Y W ~ ~ ~ ~ ~ ~ ~ 0.y.y.y.y.Q T _ z T P.F.F.F.n.B.i.i.r.8.7.",
"< c Y W 4.7.7.8.8.8.8.7.7.7.4.7.7.4.4.W Q T Y Y M ` _ _ g.g.4.4.W Y W W w.w.e.e.e.e.w.w.w.`.w.y.0.Q l.W Q F.i.i.i.w.e.e.e.6.6.4.",
"W W W 4.e.e.e.w.e.w.e.e.e.6.e.e.5.4.6.W Q T R Y m ` b.l.N.q.6.6.9 7 7 9 6.6.6.6.d.d.d.w.w.w.6.w.0.~ l.W ~ T.r.i.e.e.6.6.6.s.s.0 ",
"9 9 q 6.6.{.{.{.6.q 6.q 6.q 6.6.q q q 9 W W 5 Y T _ y.w.r.w.{.q 9 7 6 9 w.w.6.d.d.d.w.i.e.8.8.~ Q T _ Q ~ F.0.i.r.e.6.6.6.6.s.0 ",
"6 7 9 9 9 6.6.6.9 9 9 9 9 9 9 0 q q 9 9 W R 5 Y ^ _ E W 8.w.{.q ! 7 4 ! w.w.e.i.i.i.i.r.0.0.0.Q T x _ z T C.~ F.0.8.8.e.5.4.4.4.",
"z c c W W W W W W W W W Q W ~ ~ ~ W W W T _ T T #.F b x _ g.8.W ! 4 4 W W W 7.T.r.r.0.0._ Q _ _ _ x ^ x _ b.T l.~ 5.~ 7.7.4.W W ",
"v v Q Q Q _ _ Q v T T Q Q Q _ _ Q Q ~ Q _ ^ ^ ( =.F b i m _ 7.Y R - - Y W W W i.7.7.5.Q _ T T T ( b _ b ^ _ x _ Q Q Q Q 5.Q c c "
};
