/* XPM */
static char *de3b0d49caad4c4cbc61952bd0c53bc2KQzzdUl1PjA3M1x5[] = {
/* columns rows colors chars-per-pixel */
"64 64 206 2 ",
"   c #51363D",
".  c #543A3D",
"X  c #4E3644",
"o  c #4F3842",
"O  c #4F344B",
"+  c #543446",
"@  c #543C44",
"#  c #583E47",
"$  c #52354C",
"%  c #543C4C",
"&  c #5A3D4E",
"*  c #523452",
"=  c #553B52",
"-  c #5A3D52",
";  c #553E5B",
":  c #5C3F5B",
">  c #553F60",
",  c #5A3F60",
"<  c #5A4245",
"1  c #5E4946",
"2  c #56414C",
"3  c #5C444D",
"4  c #5E484D",
"5  c #564153",
"6  c #5B4454",
"7  c #5E4954",
"8  c #56425D",
"9  c #5B435D",
"0  c #5E4A5C",
"q  c #5F515E",
"w  c #634746",
"e  c #684B47",
"r  c #61464B",
"t  c #634A4E",
"y  c #6B4D4B",
"u  c #6F5347",
"i  c #6E534C",
"p  c #72564D",
"a  c #74594D",
"s  c #795D4D",
"d  c #634454",
"f  c #644C54",
"g  c #6A4D54",
"h  c #63455C",
"j  c #684758",
"k  c #644C5C",
"l  c #6A4E5C",
"z  c #665155",
"x  c #6B5255",
"c  c #65515C",
"v  c #6C535C",
"b  c #6D595B",
"n  c #725653",
"m  c #755A53",
"M  c #7A5D53",
"N  c #72555C",
"B  c #735A5D",
"V  c #7B5C5A",
"C  c #7D6253",
"Z  c #7C605B",
"A  c #564160",
"S  c #5B4261",
"D  c #5F4B60",
"F  c #634761",
"G  c #654F62",
"H  c #664F63",
"J  c #654E61",
"K  c #654D62",
"L  c #684F62",
"P  c #6A4F60",
"I  c #694D63",
"U  c #664E69",
"Y  c #694E6A",
"T  c #704F64",
"R  c #655061",
"E  c #665160",
"W  c #675261",
"Q  c #655063",
"!  c #665162",
"~  c #675263",
"^  c #665461",
"/  c #675064",
"(  c #655163",
")  c #695161",
"_  c #695063",
"`  c #695262",
"'  c #6B5363",
"]  c #6B5260",
"[  c #6C5160",
"{  c #6D5360",
"}  c #6C5162",
"|  c #6E5262",
" . c #695462",
".. c #6C5461",
"X. c #6E5462",
"o. c #685165",
"O. c #695065",
"+. c #6A5164",
"@. c #695264",
"#. c #695266",
"$. c #6A5267",
"%. c #6D5265",
"&. c #6D5365",
"*. c #6B5464",
"=. c #6B5466",
"-. c #6C5464",
";. c #6D5467",
":. c #6B5364",
">. c #6D5965",
",. c #675468",
"<. c #6B5468",
"1. c #6B536A",
"2. c #6E5A6A",
"3. c #715463",
"4. c #725862",
"5. c #765A60",
"6. c #715C63",
"7. c #705865",
"8. c #755B66",
"9. c #735C63",
"0. c #7A5E64",
"q. c #72566B",
"w. c #73596A",
"e. c #7B5E6B",
"r. c #6E5470",
"t. c #715770",
"y. c #705872",
"u. c #7A5E71",
"i. c #766064",
"p. c #7C6265",
"a. c #756069",
"s. c #7D646B",
"d. c #7E686E",
"f. c #7D6470",
"g. c #7F6B73",
"h. c #816457",
"j. c #82635D",
"k. c #896C5A",
"l. c #826461",
"z. c #8B6C65",
"x. c #82666C",
"c. c #836A6D",
"v. c #886C6D",
"b. c #8E7065",
"n. c #8B726F",
"m. c #947767",
"M. c #977C67",
"N. c #94766D",
"B. c #977C6D",
"V. c #9A7D6C",
"C. c #836573",
"Z. c #846C73",
"A. c #896D73",
"S. c #83667A",
"D. c #856C79",
"F. c #8A6C7C",
"G. c #857077",
"H. c #8C7375",
"J. c #877179",
"K. c #8E7378",
"L. c #8E737D",
"P. c #8B747E",
"I. c #8C777E",
"U. c #8D7479",
"Y. c #8F797C",
"T. c #8E787A",
"R. c #917674",
"E. c #987770",
"W. c #967A75",
"Q. c #9A7D74",
"!. c #93747A",
"~. c #92767E",
"^. c #937B7C",
"/. c #9A7D7A",
"(. c #9D8174",
"). c #9E817A",
"_. c #A18474",
"`. c #A58A75",
"'. c #A2847A",
"]. c #A5887D",
"[. c #A88A7F",
"{. c #AE917F",
"}. c #886B81",
"|. c #8D7380",
" X c #8D7482",
".X c #8F7983",
"XX c #8D758A",
"oX c #917782",
"OX c #937982",
"+X c #957C82",
"@X c #997D81",
"#X c #93768C",
"$X c #957C89",
"%X c #978183",
"&X c #9B8183",
"*X c #9F8689",
"=X c #A28587",
"-X c #A68982",
";X c #A98A82",
":X c #A18788",
">X c #A48A8B",
",X c #A88E8D",
"<X c #B09381",
"1X c #B2968B",
"2X c #B99A88",
"3X c #A99093",
/* pixels */
"6 6 6 6 6 6 7 7 7 f 2 9..Xc z f k k k k k J J J W W J k k k c W ^ ^  .c c b Y.b f f z c c k G k k k c c c c c c k k f f f f 0 q ",
"6 6 6 7 7 6 7 7 7 7 2 9.I.c z f c c c W W W W W #.W W W J c W  .c c c c z x U.x z z c c c W J G c c c c c c c c c c c c c c c c ",
"9 9 9 0 0 0 0 7 f f 2 4.P.k k k W W ` #.#.#.#.#.#.#.#.( J W #.=.W W ` c c v ^.b z c c c ` W W W J c c c W c W c W c c c c c c c ",
"0 0 0 0 0 0 k k k k 2 7.P.k c k ` W ( ( #.#.#.#.#.#.#.J J J ` =.=.=.-.:.` 4.OXB g c c c ` J J G J J k c k c k k W W W c W W W W ",
"0 0 0 k 0 k k k k k 7 8.|.l c c L #.` ` ` #.#.#.#.#.` L J J #.<.#.` ` c v 3.OXB l x v v ` J K G J ` L ` ` W J J ` ` ` ` #.#.#.#.",
"9 9 9 0 0 k k k k k 7 8.L.l c :.:.#.&.` :.` &.-.&.-.:.` L ` &.-.-.=.X.:.v 5.+XN x N N v P L J k ` ` ` ` ` ` ` ` X.-.X.X.&.-.&.-.",
"7 7 7 f f f f f f g r 8.L.g x v :.:.:.:.:.v v v v v v c l l :.X.X.:.X.v B 5.@XN N x N v v l k k l c c c c c l l :.:.:.:.:.:.:.v ",
"7 7 7 f f f f f t f r 5.K.g g x l l l l x x x x x x c g l l l v l c z z g N !.n g g g l l g k f g g l l l l k k l l l l l l l l ",
"z z x x x b b b B b B c.c.p.p.s.p.e.0.p.p.p.p.0.p.x.p.p.p.0.x.p.p.s.s.p.x.A.H.v.x.x.x.x.x.x.f.d.c.v.c.H.s.s.p.Z.s.s.d.d.d.d.f.f.",
"^.^.^.^.^.+X^.+X).^.@X:X:X&X^.&X+X+X^.^.@X^.^.^.,X,X@X^.+X^.@X^.+X%X&X^.^.=X=X&X^.@X@X+X+X%X+X+X@X&X&X3X%X@X^.@X^.^.+X+X+X+X+X+X",
"B 9.9.9.9.i.9.9.B b B 9.9.N b B B B N N B B n n R.v.n x x g b g x b x z z N N x N N N N v v v b x n Z H.p.B x b b b b b v v v v ",
"t t t t t t t t z z z b b z z b v v v b N N n x H.x.f t g g v f z x z f f x x g N b v v v v v x z x p.H.0.B b b B B B B 3.3.3.3.",
"v v c v v v v v c f k c c c c :.` L l c x x z z K.p.t f l l :.k c c c k k v :.c v v v ` `  . .v c z 9.U.B b b v v v X.X.X.X.-.-.",
"k k c c c c k k ` ` ` ` ` ` :.&.<.<.&.&.X.X.v v I.s.k k &.I &.K ` c c k ` &.-.&.&.&.<.=.;.=.<.=.>.g i.^.4.v 4.7.-.-.-.-.-.-.;.q.",
"Q Q ( ( ( ( ( ( #.#.#.H H #.#.$.1.1.$.$.<.-.` c |.f.k k H F H F H G k G J H I Y Y Y $.$.$.$.1.<.-.f a.oX2.c 2.2.-.-.;.;.;.;.;.;.",
"0 0 D G G Q ( ( ( ( #.#.#.$.$.$.$.Y Y I #.` c l |.s.k k J F Y H #.( J H H #.#.$.I U U U ,.,.,.^ X.f i.+X>.c X. .#.=.$.<.$.$.<.<.",
"0 0 Q Q Q Q Q Q Q W 2. .` -.W ` L ` ` c c c c z H.i.g f k k J ( ( ,.k c k  .7 ` J J H ( W c c c x z B %Xb B c 4.X.X.-.-.;.;.q.q.",
"0 0 0 0 k k k G k k W k k k k k k l l l l g g f ^.c.b g l l L L W =.k  .k  .f c #.#.$.<.=. .c x z z B @XB 4.c B X.X.X.-.q.q.q.q.",
"0 k k k k k k F J k k k l l L L L I L l l l l g A.0.l d d h h h k G k k k l k k k K K K J k k f z g B ~.3.3.l :.P :.&.&.&.&.<.q.",
"8.8.8.8.8.8.8.8.e.e.8.x.C.e.e.e.e.e.e.e.0.p.0.0.^.A.l.0.e.s.e.s.u.f.e.d.p.x.A.C.F.F.F.F.F.J.D.A.c.x.A.&XA.A.x.A.x.C.C.C.C.S.S.S.",
"W.W.W.W.W.W././.W./.R.-X-XQ./.Q.W.^./.Q.Q.Q.B.B.].'.(.Q./.)./.^.W.W.R.Q.Q.(.1X-XW.^./././.W.W.Q.Q.Q.Q.-XQ.Q.Q.).Q.Q.Q.Q.Q./././.",
"n n n n m m m m n m p z.z.M V n n m m m m a a a p p p i i i i y x i u i u p N.j.n m M M M m m m p p i p i p i a p p p i i p n n ",
"g g g g g g g g g x t x.v.x N g x x x x x x x x x b x g g l c l X.v x n n n /.l.N N N N B N N b B 5.B B 5.4.B B 5.B B B B B B B ",
"L L L l l l l l l v d C.A.l 4.l :.#.&.-.X.` ` ` c X.` k k ` ;.<.;.&.:.3.B x @X0.3.3.3.3.3.3.3.-.-.w.q.#.q.q.-.-.-.-.-.-.X.X.-.X.",
"H H K K H J J J K L k S.S.l &.L $.1.1.$.$.$.$.$.H H J H $.$.$.$.r.$.#.` v v OXe.q.q.q.q.q.q.w.w.1.1.1.1.y.y.1.$.;.;.;.$.$.;.;.;.",
"H H H H H H ( ( ` ` k S.D.l X.` $.1.<.<.<.<.<.<.<.$.( ( $.,.U U F S G k k c oXe.3.;.;.1.;.2.2.2.1.r.r.r.r.r.1.1.1.;.;.<.<.;.;.2.",
"G k k k c c c c c k 4 d.c.f z v c W W W W c c c  .^ c c Q k 0 0 6 5 7 7 4 t H.i.v v X.2.2.2.>.>.>.>.>.>.>.>.2.2.2.2.>.>.>.>.>.>.",
"G k k k k k c c c g t c.A.f x v c ^  . . .v  .v  . . . . .c 7 6 9 6 7 4 < 1 H.p.B 4.7.7.7.2.9.9.2.2.2.2.2.2.2.2.2.2.2.2.2.2.2.2.",
"K J J H J J J k c l f D.F.l v N :.#.#.#.#.#.&.&.I ` <.-.-.L k 6 0 6 6 6 < 3 K.p.3.3.q.q.q.-.w.2.q.;.#.&.w.q.;.-.;.;.<.&.<.&.;.;.",
"h h h k k k f f g g t x.x.g n g l l l l l l l l l l l l l l d 6 6 6 6 3 w w R.p.N N N 3.:.v v v 3.3.v :.3.3.X.v :.:.:.:.:.:.:.:.",
"B B B B V V V M m Z a z.b.M h.M V V V V V V V V l.Z V V V M V V V B V Z M s _.k.h.j.j.l.l.l.l.j.j.l.z.z.l.j.j.j.l.l.l.l.l.l.l.l.",
"W.W.W.W.Q.Q.Q.Q.W.(.N.].[.Q.'.Q.Q./.Q.Q.Q.Q.Q.Q.;X'.Q.Q.E.Q././././.).'.(.V.2XV.Q.Q.)././.).).).Q._.[.].Q.B.Q.Q.Q.Q.Q.Q././././.",
"N N N N N N N N N N N N N N N N N B N N m m n p ).V e y g g g g g g g g g g g g g g g g g g g g e e i /.n y t g f t f f g g f f ",
"c c c k k k l k k k l l l l L L L L l l c z i y W.m r g d d d d & & & & & & & & & = - - - - - & 3 # t U.f 2 2 7 6 6 6 6 6 6 6 6 ",
"W W J J J k G G K K K K K K K K U U I L L l l g ~.B d h h h F : 9 9 h h 9 9 9 9 9 9 9 9 h h 9 6 = % d |.k = = 6 6 6 ; ; 9 9 ; ; ",
"( ( ( ( Q G G G H H H U U U U U Y Y U $.#.` c c oX-.7 h F S S S S S S S S S S S 9 S S S S S S 9 6 6 k XXI 6 6 S 9 9 9 S S S > > ",
"Q Q Q Q D D 0 0 G G G G G H H H U U U U ( W c k .XX.6 6 9 ; , S 9 9 9 9 9 9 9 9 9 9 9 9 9 9 9 9 6 6 k XXJ 6 6 0 9 9 9 8 A A > ; ",
"c q k k 0 0 0 0 k k k G G G G F U G G ( W c c k .XX.6 6 6 = 6 9 9 9 9 9 9 9 9 9 0 9 9 S S 9 0 0 6 6 k  Xk 6 6 6 0 6 9 8 9 8 ; ; ",
"c c c c c c k c k k k c k k k c W W c c c z z z ^.B 4 f f 6 6 6 = = = 5 % 2 % 2 2 2 5 5 6 5 6 6 7 3 f .Xk 4 6 7 7 7 6 6 7 6 6 5 ",
"k k k k k k k k k k k k k k k k J J k k c z z f ^.B f g k 7 6 6 6 6 6 6 6 6 6 6 7 7 7 7 7 7 7 7 6 3 f ~.l 3 3 d 6 6 6 6 6 6 = % ",
"h h h F F F F K I h I F h I I F I L L L l l l l L.e.j h j h d : : 6 = = = - - = & & = = - - - - d + j F.l d & - - - - - = = = = ",
"3.-.3.3.3.3.3.3.q.P 3.q.3.3.3.3.3.:.v v N N N n A.0.g g v l j j d k d d d g g t x x N N N 3.3.3.N g 0.~.0.N N N N N N v l l l l ",
"W.W.W.W.W.W.Q.Q.).N.Q.;X'.Q.Q.Q.W.B.B.B.B.M.M.M.`.V.m.V.Q.Q.Q.Q.Q.).Q.(.(._.<X`.V.V.V.Q.Q.(.Q.Q._.V._.{.V.(.(.V.V.Q.Q.Q.Q.Q.B.B.",
"n n n n n n n m Z p M N.z.M M M M M M M M M s s C s s M M p p M n n p a s s V.k.s s M M V V V V h.s C C s C C a M M M M m m m m ",
"k k k k k k k j l d j F.C.j l l l l L l l l l l 3.l l l d & + + + + + + + # A.5.l l l P T I T T 3.3.3.l v :.3.k ` :.:.:.` ` ` ` ",
"F F F F F F K K K h K }.S.h I I Y U U U U H I I <.I I I F = * * * * * $ = = #Xu.P &.Y <.1.r.t.t.1.1.t.I q.1.1.H 1.1.1.1.1.1.1.1.",
"k k k k k k k k k k k D.C.f B c #.( ( W ` ` ` ` ` J L &.I 9 = = $ $ $ + % @ $X8.v v :.&.<.<.<.<.#.=.2.W w.W =.,.,.=.,.<.,.<.,.,.",
"k k k f k f f f f c g Z.s.4 b g W ( W W W W W W =.W W #.k 5 O O $ $ $ O % @ +X4.c c c :.&.&.<.$.W ^ 2.k 2.k ^ ,.W ^ ,.,.,.,.,.,.",
"h k k k F k J k k X.6  X8.c l l ( ( H #.#.#.$.#.H F H #.#.0 = = = = = O $ X $X8.c c ` &.&.<.1.1.$.#.$.<.<.<.$.,.G G ( <.<.,.( Q ",
"F F F F k k k k d L 6 |.8.l l c J J J H H H $.$.$.H H #.$.J 6 = O * = $ = % $X9.v X.X.-.;.;.<.<.$.<.<.<.$.#.H G G k 0 k G W G G ",
"k k k k k k k k f l f  X0.g g v k k k l ` #.` #.J k k k ` ` 9 % O $ $ + % % ~.9.z c c c :.L K K #.-.-.#.` ` k 7 7 6 6 7 k c k k ",
"6 6 7 7 f k k k g g g J.8.t t c l k k l k k k k c ` ` c X.X.k 6 & & % @ # 3 W.c.x x N v v v l k c v  .c k k k 7 @ @ 2 f v v f 3 ",
"2 2 2 3 4 f f f f 4 f c.B t t z g g g f f f f f f f g f f t 3 # @ @     . < x.B e e t g f f r 4 f f g t f t t 4 @ @ < t z z t < ",
"Z.Z.G.J.J.J.J.J.J.A.U.*X@XW.W.^.^.^.^.U.U.U.K.H.^.U.H.H.H.A.A.A.Z.A.A.A.H.H.&XW.n.n.H.H.K.H.A.A.^.U.T.^.^.U.H.T.T.H.H.H.U.T.U.H.",
"s.s.s.s.s.s.s.s.d.8.d.c.c.c.c.c.c.x.x.x.s.p.p.p.:XU.c.A.K.H.K.~.~.+X~.^.H.H.R.n.v.v.v.A.A.A.A.A.A.p.v.W.W.v.c.v.A.v.c.x.c.c.c.c.",
"7 7 7 7 7 7 7 7 g 4 g 4 4 f f 3 f f t t r r r r ^.B r f B 5.8.s.e.s.B b g t t w t t f f g g g g b t x c.c.x t x f g z z z z x x ",
"k k k k k k k c k k k k k k k l l l l l l g g g U.B f l v v 3.3.8.3.v v g f f g g l v B 3.3.3.3.b v z A.c.z b x x v x v v v X.X.",
"0 0 k k G G k k k k k k J J J J l l l l l g g g ~.5.f l l v &.&.3.:.l l j k k l l c :.X.3.:.&.:.v v c Z.Z.g v v v v c c :.:.:.:.",
"0 0 0 0 0 F F F G G J J J J H J L L L l l l l l oX8.k l l L I L L J k J K k k J L #.&.-.&.#.&.` ` X.c S.S.k c c k k J l L L L L ",
"D D D D F F F F F F K J J H H H L L L L l l l l oX8.k l L L I J I J k K J J J H #.#.<.<.#.#.#.#.c v k S.S.k c k L L L L J J J J ",
"0 0 0 D F G G G F F F J J H J J H J H J J k k k  X7.k k J J I J #.J F J H J J H #.$.$.$.#.#.#.#.c v c g.g.k c c ` k J J J J H H ",
"0 0 D 0 G G G G F k F G J J J J J J J J k k k g .X7.f k k J #.H ( k k J #.H H H #.#.$.#.#.( #.` v v c g.g.k c c ` ` ` W ( J J J ",
"0 0 0 0 0 k k k k k k k J k J J J J J k c c c z +X9.f k k J #.#.G 0 9 G ( ( W W ( #.#.#.( W #. .v b z g.g.k v c c c W c W W J J ",
"0 0 0 0 0 k k k k k k k k J k J J J J k c c c z +Xi.f k k k #.#.0 6 6 k ( ( W W ( #.#.( W W #. .v b c g.g.z v c c c c c J J G G "
};
