/* XPM */
static char *e86f1973e7bc47a7f030ad7cf3ecc91ckp4CBZ9ZdI6xbjEv[] = {
/* columns rows colors chars-per-pixel */
"64 64 162 2 ",
"   c #010007",
".  c #03020B",
"X  c #09050E",
"o  c #0A080E",
"O  c #060411",
"+  c #0A0612",
"@  c #0D0A14",
"#  c #0E0B19",
"$  c #100D16",
"%  c #120E1A",
"&  c #121017",
"*  c #15121C",
"=  c #19151E",
"-  c #1B191F",
";  c #130F20",
":  c #161321",
">  c #191622",
",  c #1D1A24",
"<  c #1B1728",
"1  c #1D1B29",
"2  c #201E26",
"3  c #211E2A",
"4  c #232027",
"5  c #24222C",
"6  c #29252E",
"7  c #2A292E",
"8  c #262331",
"9  c #2A2632",
"0  c #2D2A34",
"q  c #2A2738",
"w  c #2E2C3A",
"e  c #302D36",
"r  c #322E3A",
"t  c #333037",
"y  c #34323C",
"u  c #39343E",
"i  c #3A393E",
"p  c #2F2B41",
"a  c #322E45",
"s  c #353241",
"d  c #3A3642",
"f  c #3D3A44",
"g  c #3A374C",
"h  c #3E3B49",
"j  c #413D46",
"k  c #413E4B",
"l  c #423F50",
"z  c #424046",
"x  c #45424D",
"c  c #49454E",
"v  c #4B484F",
"b  c #464352",
"n  c #494652",
"m  c #4D4A55",
"M  c #4A4758",
"N  c #4E4C5A",
"B  c #514D56",
"V  c #524E5B",
"C  c #535057",
"Z  c #55525D",
"A  c #59545E",
"S  c #5B585F",
"D  c #524F61",
"F  c #565362",
"G  c #595764",
"H  c #595765",
"J  c #585664",
"K  c #5A5664",
"L  c #5A5665",
"P  c #5B5765",
"I  c #585566",
"U  c #595566",
"Y  c #595667",
"T  c #5B5766",
"R  c #5A5667",
"E  c #595564",
"W  c #5A5662",
"Q  c #595860",
"!  c #5B5861",
"~  c #5A5961",
"^  c #5A5863",
"/  c #5B5863",
"(  c #5C5962",
")  c #5C5B63",
"_  c #5E5B62",
"`  c #5F5C63",
"'  c #5B5964",
"]  c #5A5865",
"[  c #5A5866",
"{  c #5B5967",
"}  c #5C5A65",
"|  c #5D5A65",
" . c #5C5867",
".. c #5E5B66",
"X. c #5F5C65",
"o. c #5E5D65",
"O. c #5F5C67",
"+. c #5D5965",
"@. c #575268",
"#. c #575469",
"$. c #595468",
"%. c #5A5569",
"&. c #5A5768",
"*. c #5B5768",
"=. c #5A556B",
"-. c #5B566A",
";. c #5A576A",
":. c #5C576B",
">. c #5B566C",
",. c #5C576D",
"<. c #5A566A",
"1. c #5B5869",
"2. c #5D5968",
"3. c #5C5869",
"4. c #5D5B68",
"5. c #5E5A69",
"6. c #5C596A",
"7. c #5D596A",
"8. c #5D5A6B",
"9. c #5F5B6A",
"0. c #5E5A6B",
"q. c #5F5D68",
"w. c #5E5C6A",
"e. c #5F5D6B",
"r. c #5D586C",
"t. c #5E5B6C",
"y. c #5F5B6C",
"u. c #5F5C6D",
"i. c #5D5A6B",
"p. c #5F5B71",
"a. c #605D66",
"s. c #605F67",
"d. c #615B66",
"f. c #605D68",
"g. c #605E69",
"h. c #605C6A",
"j. c #615D6B",
"k. c #605E6B",
"l. c #605B6F",
"z. c #615F6D",
"x. c #625E6C",
"c. c #615D6E",
"v. c #615E6B",
"b. c #635F70",
"n. c #615E72",
"m. c #616068",
"M. c #636069",
"N. c #63606B",
"B. c #64636B",
"V. c #65626D",
"C. c #65636E",
"Z. c #66656D",
"A. c #67646F",
"S. c #64616C",
"D. c #68656E",
"F. c #646273",
"G. c #686673",
"H. c #6C6A76",
"J. c #666378",
"K. c #6A677A",
"L. c #6B6879",
"P. c #716F7A",
/* pixels */
"y V M x n n M b b b M b b l b b k k k k k z x x j x f i z u c 7 7 B i z j f f z f f d d d d d d u u i i i f f f i d z f d u c 0 ",
"d J Z M N N V N N N V V N N D D V V V V Z Z Z Z Z A C C A v v - = B c B B m n m m n n n n n M M c c c c n n n n n c n c c z n 0 ",
"d G J V Z Z F F J J I G &.1.1.1.6.} } 6.6.6.h.k.G k.O.O.D.O.A = @ Z Z } J Z F J F F F F F F F G F J J J J F Z Z F N Z V F N V 9 ",
"r J J V Z V F F G J F G 6.u.t.6.&.G &.&.&.*.6.6.G 6.G J k.k.z., % G G G V F G G F F F F F F $.G F J G G G J F Z F V F V G F F q ",
"r F J V Z Z F F J F F F &.6.6.&.&.&.&.&.>.&.,.,.t.t.6.F F J 6.> : G F F V F G D D D D D D D F @.D F F F F F F D D V F V F D I w ",
"y J J Z J F G J F F F F G &.G G &.&.&.&.>.&.,.,.*.t.l.*.F F z.< ; F F G F &.I V F F F F F @.@.@.F F F F F F F F F F &.D D D I w ",
"y Z Z N J J J F F J J J J J I G G G &.I $.G &.G G D &.6.G G b.1 % F F G G G F F G I F F F F F F F F F F F F F F I I 6.F F F G w ",
"y Z N M Z Z Z V F G G G F F F G G G G E E G G G 6.V F G Z V 6.: > F Z G Z V F G F F F F F D D D J J F F F Z Z F F J ] Z G G ] w ",
"y Z q.V V } J m Z J G z.F q.V G G ^ k.J ( N.} J } m Z ^ V k.Z * = O.a.A A.} A J J J V F V V G V n J Z J Z Z ^ V Z ] V.q.k.^ ^ 0 ",
"y c M x m Z ] } Z J F ] V q.] z.M.( J C Z A C A A m Z A m ^ Z 0 2 C C B ` ( ^ ^ J J Z ^ J ^ V.J M.S.J ^ ^ Z O.( A.a.a.S Z n Z y ",
". + X . . . . + + @ + # . % # @ + @ X o @ X . @ o X @ @ . @ @     @ X . o X @ X $ $ @ % $ * , @ @ * X @ @ X @ & o   . . X   &   ",
"@ 1 0 e y 0 0 y q w w y w y w % X 6 e e y t e y y y y y y r y d i y t e 0 0 0 9 5 7 4 5 4 5 0 > X 6 0 0 y 7 0 0 0 7 0 7 0 6 e & ",
"+ y m Z Z Z J ^ J J J ] ] ] Z 3 & B a.^ } a.V.k.k.k.} k.V.k.6.G.A.( a.k.J ( a.O.k.V.} O.} 6.z.m @ c ] A ] ^ J Z } O.q.Z J Z Z 2 ",
". u Z m n m Z m J Z V Z Z J J > X J k.Z F G z.J } } J G z.6.G 6.6.Z O.} F P G } F J V Z V F G k . n q.Z Z F J J Z F J M Z J J 1 ",
". u Z m m S } ^ Z Z Z Z Z Z k.< + } k.Z G G z.G 6.G &.*.,.,.,.*.z.G k.F J 6.D F G 6.I &.&.*.t.b . M t.D F V F G &.G G N F V N < ",
"+ y V m m Z V N m Z G F Z V z.> + G G G F.t.b.$.,.&.t.t.&.,.n.,.6.J 6.V G F.D F I t.I I F &.&.k . M 6.F &.V m I D N F F G N N 8 ",
"O s D D N V V N N F N &.V F 1.: # I &.&.b.#.t.@.F b.@.F ,.,.p.t.z.V 6.J F ] F &.G G D G G J G x . M ] V G J Z F J V F Z J N N 5 ",
". s F N m F G I F F M F V G 6.< # &.t.&.t.F t.1.&.b.F #.t.1.t.G J Z q.J Z 6.I G F F V F F J S z . m q.N V N V Z Z V V b N V N 1 ",
". d J N n m m M Z Z M Z V J Z > O N G V Z N J Z ] 6.F ] 6.J ] F Z Z O.Z Z q.G F D &.J J F J ^ f . m k.Z V V F F J J J M Z J Z < ",
"@ u Z A J ^ ] O.] O.] M.} O.Z 5 : J G.z.V.S.G.q.S.S.q.V.S.} G.k.^ O.} J 6.q.G G I z.q.] J } O.z . n 6.J J G } J Z Z G Z J F V 1 ",
"X - 0 y u y y d y u i i y y y = X y f u d f f u x c c n x z V c n n x x m b k b h M b b k c n u # f x h x b b k b x n b M x b 8 ",
"  X X . .     X X X X . . X @ .   + +   . + + X   . . X     @     X . . O . . . . . . . . . @   . + . . . . O . + . . . O . # . ",
"d n V n m C Z Z V m Z n M Z J J O.} ] Z Z ] J } J J J J N J ] r = z x f b h k k b b x M b x B n Z Z b b b k b b k f f d f f n w ",
"d ] G.] 6.G.G.] z.q.S.z.F.H.F.S.F.q.V.F.F.F.k.G.H.G.V.V.k.H.F.q @ Z ] m N V G D &.G F 6.J V O.^ 6.] Z ] } V J J J J G V F F ] y ",
"s u.F.&.1.6.F.F.t.u.u.z.b.b.b.F.F.F.b.b.F.F.F.F.L.G.z.6.b.F.L.w @ Z V m M N F F F F J Z Z Z Z Z 6.] G J F F Z F Z Z F m m M Z w ",
"p t.F.t.t.&.>.I p.u.p.b.n.b.n.b.F.b.b.b.F.F.F.F.u.b.b.t.b.t.F.q @ C Z Z N Z V M V D F Z Z Z A ^ G J J Z Z Z Z Z m m Z N Z N F w ",
"p ,.F.b.n.p.p.t.n.F.n.F.J.F.J.F.n.b.p.p.b.n.F.b.b.F.J.F.n.p.K.s + B V Z F J F m V D F J J ^ ^ O.] G J J F Z F F Z V Z N Z V F 0 ",
"a ,.p.>.p.,.p.b.p.p.b.b.n.b.b.b.F.F.n.b.F.F.F.F.F.F.b.t.t.&.J.s + m N V N V F F V D F J J Z Z Z J F Z Z Z Z Z Z Z m m b m N Z w ",
"g u.b.t.p.1.p.u.b.b.b.b.b.b.b.b.F.b.b.b.F.F.F.F.F.F.u.t.u.1.F.w % Z Z J N N D F F F J J J Z Z Z F F Z Z Z Z F J V M m M V Z G r ",
"r F 6.6.b.6.u.u.t.u.u.u.z.z.z.z.z.q.6.6.q.q.q.q.F.z.z.F.G.q.F.q . c M V M M m N N N N N V Z Z B Z Z Z V Z Z F J m M N M V m N 5 ",
"f q.S.F.H.G.H.H.G.G.G.G.H.H.H.H.P.P.H.H.H.H.H.H.G.G.G.G.G.M.H.f = Z Z ^ ] ] 6.1.1.&.G G ] } ( ^ q.6.6.6.q.q.z.S.} ] q.J J Z ] y ",
"+ 8 5 1 3 , 3 5 5 5 5 5 5 8 9 9 5 4 4 2 2 2 1 1 1 , > = & $ 5     y 3 5 5 8 8 5 8 3 1 1 1 3 2 1 , , < < 1 1 3 5 3 , 1 * > , 0 @ ",
"  , + + # % + % : @ % # + + >   . > @ % % % @ , = * * > , > > , > > > : = : : : * * > * % @ < .   5 * % 3 > > : > % > , , = 5   ",
"9 A Z J } k.J 6.F V J J k.M.Z $ 5 Z V Z J ^ Z } J Z Z J J Z J ^ J J J J J J J J ^ Z J Z Z m Z u = ` M.O.V.J } } } F } } } Z B - ",
", Z J ^ J } F G G G J m } G.C   > V V Z V Z m V Z V V V V m m V V V V Z Z Z Z Z Z M m M Z m V 0   B k.( k.Z G J F V J Z ( A m X ",
"3 a.k.J Z 6.G G 6.z.z.V Z M.( @ 3 J J V m Z Z Z J Z Z Z Z Z Z Z Z Z Z Z J J J J Z m V N J Z Z 0 X A a.Z k.O.k.J G J } Z O.N.S * ",
"> A A V V } G G m F k.F Z J B @ = Z V n n Z Z Z Z V V m m V Z Z Z Z Z Z Z Z N V Z V Z m V m m 4 + A ^ m J J } V J F J V C ^ C @ ",
"> A J Z J z.G G G F } J } ^ B @ > Z Z V m Z m V V Z Z V V Z Z Z Z Z Z Z Z Z Z V V Z J V V N Z 0 . A N.Z ^ Z } G F F } Z ^ } C $ ",
", A ^ J F } Z J k.G J V J } V + , Z Z Z V V n m m V V m V Z Z V V Z Z Z Z Z V V m m V n m V Z 0 . A N.( } Z G } J V J J O.a.Z * ",
", Z J J Z J F z.F G z.J } k.C X > m m V V Z m Z m V V m m V V m V V Z Z Z Z Z Z Z V V n m m V 5 @ C ( A k.J G G z.F Z Z ( ^ C & ",
"& Z k.Z V G z.F 6.V } 6.Z G.C X % m Z m Z m Z Z Z V Z Z V V n V Z m m Z m V c Z Z m Z Z m J Z 0   C H.C } k.F 6.V G } Z ( k.C @ ",
"1 B } } k.k.6.F F.6.V.6.Z k.Z , 5 Z Z m Z m V Z Z V Z Z Z Z Z Z Z Z V Z V J V A Z n m m x m n 9 = m ( B Z J V G V V Z m C V B , ",
"  = % * , * : : # # % # + % @   . % @ + @ + + @ @ + @ @ @ @ @ X . % + @ + = $ $ @ . X @ X @ @     . . . + X . + + . + + @ X &   ",
"* 5 = = 3 > < 3 5 9 9 9 0 0 0 r r y 0 0 y r 0 y y r y y y 0 r = % u r r e d u r d r y f d d j d c j f f f f f d s r y y u e f 2 ",
"0 m m m E F V m V Z m m Z V B A } Z m m Z Z Z O.} J ^ J } Z J 9 5 } } } A h.d.! V.d.d.x.d.} d.a.N.( ( ( J ^ } V } } O.Z Z V C 7 ",
"5 m m n m V V M V V m m V m n V Z n m n m Z V J Z m Z m Z m J > % ! ! ! A A E E ! A A E J A J ! J S O.} J } 6.F m V Z n B B m = ",
"0 B m x M M V V V m m V V V B Z Z n Z V m Z V J V m Z m Z n } > % d.! ! E Z E ! V ! ! ! d.x.k.d.C Z Z Z Z Z Z F V V Z m C A C 2 ",
"5 x n m V m m m V m V V n n B m Z n ^ Z m Z m Z V Z ^ m V x O.> > x.A ! ! V A ! A d.! E d.k.P ! O.( Z A J V m G J V Z m Z B m , ",
"4 m N n V Z V M b m N N Z V B Z Z J V m Z Z V Z V Z Z Z m n } 3 % k.A ! ! A ! A A A ! } ! J E A A ( A C Z Z Z F V m V m C B C 7 ",
"5 m m c M M N m m N M M m m B Z Z Z Z Z Z Z Z Z V V V Z V m } , % d.A Z V Z A Z V V A J ! ! ! ! Z A J A Z Z V V F Z Z m Z B m = ",
"5 m V n M M V V F N m N N m Z A V n m Z V V V V Z V V Z Z Z J 1 % ! ! A A ! ! A A A A E ! d.} ! V B C J Z Z J Z m m V n C A Z 4 ",
"5 m V m V N V V V M N Z V N Z Z } V Z ^ J Z J Z J Z Z V Z V Z 5 = E d.d.! x.d.E P d.d.P P d.P ! x.A ( N.O.k.x.} k.G J Z A Z C 7 ",
"0 n b x M n M b b k b m x c m n Z n n n n m m m k f k d f d k 5 = c n n k m n k c B B n c c c c k f d i d d d r h r r r y 7 0 & ",
"  & O . O O + + @ . O O . + @   . + . . X + X + . . @ . X . + . . $ + + . $ + @ . + $ + X + X .   @ $ + @ & # % % O + @ & @ *   ",
"0 x f d h f k k x d h h d x f * * f x d x c f n m n Z m V m V m B V B B c V n V c n n c n n c u & c A m J J V 6.k.} } Z A Z m , ",
"y Z J J k.G } 6.6.Z G } } A.m * + n J n J J m } J Z O.Z ^ Z Z V Z V V ! A P B A A Z V m V A n u   v N.C } Z M G V F J m Z A m X ",
"0 ^ Z Z V P E E F E F Z J A Z @ % m V V m Z m Z J Z Z Z Z V V Z V V V V V V V V A V B V B V V r   j ^ Z Z m F G J V m Z ( C B @ ",
"0 A Z Z V J F F V E F V Z Z C $ @ n V V V Z V J Z V V V V m m V B B B B B B B B V V B V B Z A u . x a.J Z Z F V Z V V V Z m B $ ",
"r ( J ! E h.P P G P } P d.E A = @ n m V V Z V Z J Z Z J J Z Z J A A A A E E ! ! V V B Z V Z A u . x ( C Z Z G V Z J J Z Z Z A = ",
"0 A V Z V E V F V V Z E ! V V @ % m V Z Z J Z Z V V V Z Z V V Z V V V V V V V V V V V A B V V r   x ^ m m Z G V M V V m m m C & ",
"r ! A ! E P E P G E E P x.! Z $ @ n m m V Z V Z Z Z Z J J Z Z Z A A A A A E E E ! ! ! P V A ! d . m N.A Z Z J V Z F Z Z C V C * ",
"e C V A V E V E V V V E P V B + % m m V Z } J ^ Z V Z Z Z Z V Z A A Z Z Z Z A A V V V A m V A u   j A Z Z V V m J F Z Z C m B * ",
"d d.! k.} h.P x.h.d.d.h.d.A A 2 > V V V Z } Z J } ( } k.k.} J ^ d.d.d.d.} } } P d.d.P d.Z J d.k * c A A J Z J J J V V Z C m Z 6 ",
"= f u j f f f k f f f f y 0 u . . y y r r d r y y r y y y r 0 r u r r r r r r r 0 0 6 6 2 3 6 +   , , * = * > > 1 > > 3 1 * 7 . "
};
