/* XPM */
static char *cbf31e77ac764a4f8e53fe28c58a491bgHWsv4Xd1EJ4tRZI[] = {
/* columns rows colors chars-per-pixel */
"64 64 203 2 ",
"   c #222E3D",
".  c #282F3F",
"X  c #1B2F47",
"o  c #1B3344",
"O  c #1F3B4E",
"+  c #19354B",
"@  c #1C3B52",
"#  c #173B55",
"$  c #233443",
"%  c #2A3444",
"&  c #253847",
"*  c #2A3A46",
"=  c #23364A",
"-  c #2A3748",
";  c #243A4D",
":  c #2C3B4C",
">  c #343B46",
",  c #343748",
"<  c #323E4C",
"1  c #3A3D4A",
"2  c #393744",
"3  c #243D54",
"4  c #2C3E53",
"5  c #233E59",
"6  c #353F52",
"7  c #3D3F56",
"8  c #1D4156",
"9  c #1F445A",
"0  c #26404F",
"q  c #2B414E",
"w  c #32414D",
"e  c #3E424F",
"r  c #254156",
"t  c #2D4255",
"y  c #24425B",
"u  c #2B445C",
"i  c #2E495F",
"p  c #344354",
"a  c #3B4453",
"s  c #334857",
"d  c #3D4B55",
"f  c #33465C",
"g  c #3C455B",
"h  c #354A5D",
"j  c #3C4B5C",
"k  c #3F505B",
"l  c #254562",
"z  c #2B4662",
"x  c #2B4964",
"c  c #2D4C6A",
"v  c #224B61",
"b  c #354761",
"n  c #384660",
"m  c #344B63",
"M  c #3C4D63",
"N  c #344E6B",
"B  c #3B4E6A",
"V  c #2E5269",
"C  c #355165",
"Z  c #3D5165",
"A  c #36536C",
"S  c #3C536B",
"D  c #3D596D",
"F  c #3B4F70",
"G  c #3D5471",
"H  c #3D5973",
"J  c #3F5678",
"K  c #41454E",
"L  c #48494D",
"P  c #414654",
"I  c #434B55",
"U  c #494D55",
"Y  c #40465A",
"T  c #434D5C",
"R  c #4A4F5B",
"E  c #524F5A",
"W  c #465356",
"Q  c #4D5255",
"!  c #45525D",
"~  c #4B535D",
"^  c #4D585F",
"/  c #505156",
"(  c #51545C",
")  c #54595E",
"_  c #595B5E",
"`  c #5B555F",
"'  c #434E62",
"]  c #4A4E63",
"[  c #424E6A",
"{  c #445364",
"}  c #4B5564",
"|  c #465965",
" . c #4C5964",
".. c #44546B",
"X. c #4A566A",
"o. c #445A6C",
"O. c #4A596A",
"+. c #4B5A6B",
"@. c #515662",
"#. c #535A65",
"$. c #5A5C64",
"%. c #535C6B",
"&. c #5A5E6B",
"*. c #435572",
"=. c #485671",
"-. c #455971",
";. c #465E74",
":. c #445B73",
">. c #4C5C72",
",. c #4B5C73",
"<. c #445D7A",
"1. c #4B5D79",
"2. c #505771",
"3. c #535E73",
"4. c #5B5E71",
"5. c #615F6A",
"6. c #4D606C",
"7. c #5C6366",
"8. c #54616D",
"9. c #5C626C",
"0. c #5E686E",
"q. c #456175",
"w. c #4D6176",
"e. c #4D6174",
"r. c #45637A",
"t. c #4D6078",
"y. c #4B647B",
"u. c #47687B",
"i. c #4F687C",
"p. c #546273",
"a. c #5B6472",
"s. c #5D6A74",
"d. c #526379",
"f. c #5C6579",
"g. c #5E6C7C",
"h. c #5E7378",
"j. c #5C7176",
"k. c #626264",
"l. c #63656D",
"z. c #646A6E",
"x. c #696A6C",
"c. c #636671",
"v. c #636A74",
"b. c #6A6C74",
"n. c #646D7A",
"m. c #696E7A",
"M. c #677077",
"N. c #6E7075",
"B. c #65717C",
"V. c #6B717B",
"C. c #6F797F",
"Z. c #747475",
"A. c #777976",
"S. c #72757C",
"D. c #7A777D",
"F. c #74797E",
"G. c #7A7A7D",
"H. c #82817F",
"J. c #466481",
"K. c #486380",
"L. c #5B6D83",
"P. c #576D84",
"I. c #5E7283",
"U. c #646E84",
"Y. c #6A6D80",
"T. c #647482",
"R. c #6E7780",
"E. c #6C7583",
"W. c #667883",
"Q. c #6C7A83",
"!. c #6A748B",
"~. c #667988",
"^. c #6D7B8B",
"/. c #727682",
"(. c #797785",
"). c #737A84",
"_. c #7A7D84",
"`. c #747D8B",
"'. c #7B7E8A",
"]. c #6B7A91",
"[. c #737F92",
"{. c #797E91",
"}. c #817F86",
"|. c #6F818E",
" X c #6F8183",
".X c #7D8185",
"XX c #77818B",
"oX c #7C818B",
"OX c #718385",
"+X c #708291",
"@X c #7A8393",
"#X c #7C869B",
"$X c #7A89A0",
"%X c #848385",
"&X c #888687",
"*X c #82838B",
"=X c #92918F",
"-X c #838791",
";X c #838A94",
":X c #8B8B93",
">X c #868B9E",
",X c #8D9298",
"<X c #949395",
/* pixels */
"3 u f f f b b b M g g j n.n.1 < f f f m M M m m M S Z Z Z S -.-.:.:.o.o.+.~ Q.B.I } } { ..G N N C Z { { { j T T g g d a a a s s ",
"i m Z Z M S ..B [ ' ..{ n.T.P T M M M Z S S Z M M S Z Z Z S -.-.q.r.w.p.p.#.XXQ.~ #.+...-.:.G :.o.o.+.+.o...O.+.} } } { { { { { ",
"u h Z M M B B B M ' { ' f.n.P } M M M m M M m m M Z S M Z ....o.S o.o.O.%.! V.V.P  .} ' S B N G Z Z D o.........{ { { ........{ ",
"j Z ............{ { } ' v.n.T #.{ { Z Z Z Z Z M M M M j m M S Z S o.O.O. .! V.V.P  .%.{ ..M N G S D o.o.o.o.o.o.>.>.>.,.,.o.:.o.",
"Z { O...{ ..X.} { ' ! T v.V.R  .{ { { Z { { { Z M M M j j j M Z Z O.{ { } T R.S.P  .%.} { B m Z D H ;.;.;.-.,.1.y.e.y.e.1.w.r.w.",
"k { | { { { { { } ! R T n.R.~  .} ..{ { { { { { { } } { ' { ......| { { } T S.S.e !  .{ { M b m D o.:.q.:.,.,.w.1.,.1.,.,.,.,.,.",
"{  .+. .}  . . .#. . .^ V.).@.#.+.O.O.O.+.+.+.+.}  .} { { ..{ { { O.{  .#. .).S.U  .#.} X...B { o.+.e.e.e.>.>.e.>.>.e.e.e.e.1.e.",
"j ! ! ! T ! ! ! I d I P 0.v.P T d j d d T T T T T R T j a d j j j j d T ~ I m.c.K T T T { { M M j ! { { { { { { { { { { { { { ..",
"s.B.B.n.s.s.v.s.s.B.0.v.XX`.v.n.g.L.n.n.n.V.n.v.n.E.v.E.g.g.g.T.g.g.n.s.v.v.V.).v.v.v.n.g.g.g.g.s.%.V.B.a.s.v.n.s.s.g.g.n.n.n.g.",
"T.Q.^.Q.E.Q.Q.Q.R.XXR.R.;X@X).@X`.+X[.`.`.XX`.).;X;XR.@X^.`.^.^.^.^.`.`.).).oX-X)./.).E.^.^.^.^.).V.oX-X).).XXXX).).).).).).).).",
"O.+.p.8.%.8.8.8. .a.%.%.a.a.%.g.p.p.p.p.a.a.9.%.oX).#.a.p.f.d.p.p.p.f.a.8.9.a.c.9.9.9.a.p.p.p.p.9.$.N.S.l.l.0.0.v.v.v.v.v.c.v.c.",
"j { { { ' { { ! a T d d Y j Y } M Z { T R ! R I ).v.I } T { ..{ ' { { { { R R ! R R ! { { { { { Q L 7.k.Q Q ~ ~ ~ ~ ~ ~ ~ R R R ",
"B { ..{ { { { { T { T ' { { { ..{ ....{ } #.@.^ XXV.! +.} X.o.o...X.+.+.X.} } } } } } } X.} O.+.( / x.b.#.) ^ ^ ^ ^ ^ ^  . .} } ",
"M { { ' j j j j T j T ' { ....B B { { { }  . .! ).v.T +.{ { ..o...X.X.O.X.X.} } } } } } X.O.o.+.@.Q b.b.#.)  . . . . . . .#.%.%.",
"M { ..Z j j j j { j M { ' ....B S { { { { } ~ T ).v.T %.O.O...o.o.X.X.o.O.X.} } } } X.X.O.o.+.+.@.~ b.v.@. .~  .! ! { { { { } } ",
"j B { M j j j j M M M { M B ..[ Z { { { { } R I oXn.R %.+.+.o.o.*.o.o...X.X.} } ' { { { ....O. . .! v.v. .! { { { { { { ....X.X.",
"h M M M j h M M ' B ..n ..M ..B { { { { { ! T T ).V.R +.p.{ p...-.*.,.Z 6. .}  .T ' { ..........T ! n.T.%.} p.O.......o.,.,.,.,.",
"s s j j j j j M j M ' g X.' { ' { T T ! ! T I I ).V.T ! { d +.{ ..S o.j  .! ~ } R T { { ......{ } } v.m. .} %.} +.o.o.o.,.,.,.o.",
"d d j j j T T ! T T ' T %.} } } ! ! T ~ ~ Q U U S.b.Q ! ! I  .{ { { } T ^ W ~ Q R T ' { { { { { R Q 9.c.~ T ^ T ! { ! { { { { ! ",
"n.v.v.v.B.B.B.n.V.V.m.v.'.V.m.V.V.V.V.V.V.N.N.N.%X.XS.F./.V.).V.E.T.R.M.S.x.G.Z.b.b.m.n.n.B.B.V.b.b.F._.b.c.b.v.v.v.v.v.n.n.n.n.",
").Q.Q.Q.).).).C._.).F.F.,X.XF._.).).)._._._._.G.G._.G._._.).'.).`.`._._..XA.=X&XG._._.).).).)._._._.*X*X_._._._._._._._.'.'.'._.",
" . . . . .^ ^ ^ ) ( ( _ ).l._ k.#.#.#.$.$.$.$._ $.$._ ) #.#.9.9.%.%.$.7.k._ H.A.k.k.5.9.&.9.9.9.7.7.7.7.7.7.7.9.l.9.9.9.&.&.$.#.",
"d d T d d a d I P P K U S.$.U ) ! ! } ~  .^ ^ ~ @.^ ~ I I } } +.} { R ^ ( Q G.b._ $.$.%.#.#.#. .~ ^ ! ! ~ ~ ~ ~ ! ! R R T T T P ",
"B ....{ ' T { } R ! T @.'.9.U #.+.e.>.e.p.8.%.%.8.+.+.{ { e.>.>.d.+.} %.^ ~ XXV.9.9.f.f.p.p.8.6.6.6.| |  . .| O.O. .} } X.X.} { ",
"B S *.*.......o.3.X.} f.E.4.R +.;.;.;.q.w.e.e.w.e.w.w...D ;.y.r.y.y.i.p.8. .OXE.%.3.p.d.d.i.w.i.e.q.q.o.q.q.:.o.e.,.,.,.>.>.,.,.",
"B G *.*.*.*.*.*.,...' p.U.4.R +.G H H H H :.;.;.;.r.;.H H r.J.r.r.K.y.i.e.O.|.~...,.=.,.<.q.r.u.u.u.q.q.u.u.r.q.q.q.;.;.1.,.<.;.",
"G J <.<.<.:.1.1.,.o...f.!.f.} 3.H H H H H ;.;.;.;.r.;.H H r.J.<.<.<.r.r.w.o.+X~.o.-.,.1.r.r.r.u.u.r.u.u.u.r.r.r.r.r.r.r.y.r.<.;.",
"G G *.:.:.:.=.=.=.X.X.f.!.f.} p.;.J <.;.;.;.;.;.;.;.:.H H H H G G G G :.o.| |.T...o.=.,.r.q.r.r.q.q.q.r.r.r.r.r.r.r.y.y.y.y.y.r.",
"Z Z Z S S { { { ' { } &.m.a.] %.o.:.o.o...O.....O...{ Z S S Z m m m j j ! I Q.n.R } X...o.O.O.O.o.o.o.,.+.o.o.o.>.>.>.e.p.p.>.>.",
"o.O.| | O.O. . .}  . .9.V.l.@.&.p.e.+.%.%.%.%.%.#. .{ { { { { M { M T ! ~ U S.b.U R } } } { } | { } } +.} } } }  . .} }  .%.%. .",
"h.j.s.s.s.v.v.v.v.v.l.N._.Z.x.S.V.V.m.m.m.m.N.V.S.b.c.c.v.v.s.a.f.a.l.z.x.k.%XA.k.l.l.c.c.l.l.z.9.l.c.c.c.c.c.c.c.l.l.l.l.c.c.c.",
"OX XQ.Q.Q.).).C.)._.S.F.*X_.F.*X_._._..X.X.X*X*X<X:X*X*X*XoXXX`.XX'.oX*X%XA.<X%X}.}.*X*XoXoXoXoX_.*X*X*X*X'.'.*X*XoX'._..XoX*X*X",
"W W ! ! ~  . . . . . . . . .#.#.#.#.#.#.8.9.9.$.}.S.E &.@.I  . . .#.@.^ #.@.~ @. .@.@.@. . . .@.#.~ &.).@.^ @.#.@. .^ ^  .@.#.#.",
"d d k k ! ! { { O.O.O. . . . . .} }  . . .%.#.( /.c.1 R a < w p - < - - : - - - - - : : - - < < a > T a.a w p p < < < < < < - - ",
"{ { ..{ { ......o.o.o.o.o.O.O.O.O.o.o.O.O.+.+.} {.Y.P X.' s t t 4 4 4 4 4 4 4 4 ; 3 4 4 4 4 t p : : j p.s : ; : 4 t p p t t 3 ; ",
"O.O.o.-.*.*.*.*.o.*.*.-.-.o.o.o.,.,.,.:.:.,.O.{ [.U.g +...f u r u i u u z i u z u u i z z z m m h f o.I.m t t u u u i i i i y 5 ",
"S S S S S G G G G G *.*.*.......-.:.-.H -.-.S M !.L.g =.M u y y y l l y l l y z x x x x c c c x m f -.P.m 5 5 u y y y l l l l l ",
"..S ..G *.*.*.*.*.*.*.*.*.*.*...G H H D D o.Z j ].U.M =.S i x z l x l l c x x c c c c c N N c c Z h -.P.i 5 y u z l l z x x x x ",
"..........*.*.*.*.*.*...o.o.o.o.....o.o.o.o...j `.n.g X.B u u r y l y y x z z x x z z x x c c z Z s o.L.M f f m i u z z x c c c ",
"j j M M M M M M [ [ ' ' ' ' ' { { ....| | | { T @Xn.a } ' s t O 3 y 5 3 i u u f m f f m m m N m j p { g.j f f f M m M Z S S Z A ",
"T j Y Y Y Y ' ' X.R R ' T ! I ! } } ! ! !  .~ U (.l.2 P 1 < * o = = ; ; 4 f : < p a f p p p f p a 1 R a.a a a 1 p p p p p s s p ",
"n.n.n.n.n.n.n.n.n.n.n.m.V.b.c.m.c.v.s.0.z.v.z.k.%XD.` l.9.#. . .O.O.+.+.%.a.9.a.9.0.a.a.4.a.f.4.l.&.x._.9.9.9.&.#.#.%.%.%.%.%.%.",
"`.`.`.`.`.`.`.'.`.).).oX:X.X_..X).).).F.)._._.D.%X%XZ.%X_.).Q.Q.T.T.^.).).).*X:X_.'.oX'.'.oX{.'.*XG.}.:X'.'.'._.(.).).).).).).).",
"%.%.%.%.%.8.a.a.%.%.&.v._.l.7.9.0.0.9.9.0.0.z.l.l.l.l.b.v.0.8. .{ O.8.#.%.#.S.*Xl.b.b.v.v.m.n.n.m.l.l.b.l.c.b.c.l.l.c.c.c.c.c.c.",
"j j j j ' ' ' { ' } R #./.^ ~ ! } { { { { |  .@.~ ~ @.! } ! s ; = : : * < % 9.V.U R @.@.} X.X.} } R ! ! ! !  .} R R R R R T U U ",
"S S ....o.,.,.,.>.3.} p.@X#. . .O.o.o.o.o.o.O.+.%.} %.{ o.o.i O O 3 4 & p % n.`.R @.%.%.3.3.3.1.>.o.+...3.+.%.%.+.%.%.} } } } } ",
"Z S S G *.*.*.=.=.1.B ,.#X{ { { S S A D D S S o.,...1.m S D x @ @ y r ; f $ n.`.T } %.3.3.d.1.1.;.1.y.-.d.-.1.,.,.>.>.+.+.+.+.+.",
"S G G G *.<.<.1.1.1.B ,.$X' { ..S A A H H A S S *.B 1.b G H V v # y y 3 m o g.^.j { o.>.1.1.1.:.:.<.y.H y.-.;.-.-.-.-.,.,.,.,.,.",
"Z S S ..*.-.*.*.=.1.B X.#XT { T B Z S S G G ..*.[ =.*...S H V 9 8 9 y y S & I.Q.{ { X.X.,.,.:.*.:.:.r.D y.D :.;.-.........o.,.,.",
"M Z S ..o.o.X.o...X.Y %.@X! ! } M B ............[ X.X...=.:.C 8 8 y y u D q T.^.} } +.+.o.o.o...S D :.S w.o.:.o.m h f f b M M B ",
"s s g j j ' ' { T R Y %.oX! ~  .' ' { { ......X.' ] ] { o...f 3 3 r r t ..p B.`.@.#.%.%.+.X...o.| O.6.{ +.O.O.k : : : ; : 6 p p ",
"< < < < 6 a a a Y a 1 @./.U K U P g d g d j Y T ] ] T T ' j s r ; ; 4 p ! d n.).~ ! ~ ! T d d d { ! { j d ! j <           % % % ",
"%.%.%.%.%.%.&.&.4.%.$.m.oX&._ 9.&.%.%.%.%.%.&.&.&.&.&.&.%.+.| { { Z ..} %.#.V.).9.9.&.&.%.%.%.+.a.9.9.9.^ #.#.R P P a P I I I I ",
").)./.)././.).).`././.'.-XF.N.F./.).).).).).).(.'.(.(.'.XXQ.W.W.~.T.E.E.R.R.).-X'._.).).`.XX`.`.*X_.'.*XS._.'././.S.R./.).).).).",
"%.%.%.%.%.%.%.%.4.%.&.9.9.9.$.9.a.a.s.s.s.s.a.c.:X(.b.m.V.B.s.s.g.f.g.g.s.v.v.V.c.v.v.v.n.n.B.B.S.b.S.*Xb.V.V.V.m.m.n.m.V.V.n.n.",
"< < p p a a a 6 g a a a a I P T I d T T T I I I /.@.1 > < w : q ; ; : 4 : p 1 a 1 a d d j d { } @.U $.S.( ( ~ ~ ! ! ~ ! ! ! ! T ",
"f f f j M M M B n g n M j T T T T { { Z { | d ! `.@., % $ & = o = X = ; = = : : s j j M M { ..{ @.R @.S.#.R } T } } { { ' { { { ",
"f f m M M B B B M M B B B { { { ....o.Z O.O.k { @X%.a 1 4 t u 3 5 3 3 u 4 u M M Z ....o.-.-.,.>.%.! @.R.%.} X.{ } } ..{ ........",
"m m m B B S G G B B B S S ......S ..:.S o.o.Z { [.4.g g b m m u z 5 y z i m S S S ..-.-.:.,.,.1.+.}  .E.%.} +...o.o.o.o.-.*.-.-.",
"m m N S G G G G F G G G G *.*.*.G G :.S o.o.Z ..^.3.M M B B N z z 5 y z z m G G S G -.-.:.:.:.,.+.{ } E.+.{ +.X.,.,.,.-.-.-.:.:.",
"M B B S G G G G G G G *.G G G G G G -.S o.o.M ..[.4.' ....S S N z 5 y z z N :.<.:.:.:.:.,.,.=.>.+.{ } E.+.{ >.X.,.,.,.,.*.:.:.:.",
"M M B S B G B F G G G *.*.G *.*.G G -.Z S o.j { @X3.' ' ....S N 5 @ @ u z N ;.<.<.:.:.=.1.1.1.1.+.} +.^.+.{ +...+.,.,.,.=.*.:.*.",
"M M B B B B B B B B G B S S S S S B S M Z ..j { #X%.g Y [ [ B m 3 + @ y u m S -.:.*.*.,.,.>.>.+.%.} +.Q.%.{ +.{ o.X.o.o...o.*.*.",
"M M B B B B B B B B B B B B M M B M Z m M Z f T >X4.7 g [ [ B b y @ 3 u u z Z S *.o.o.=.>.>.2.X.+.{ +.Q.+.{ } T ........[ [ [ [ "
};
